HIERARCHY
ROOT Hips
{
	OFFSET 0.000000 0.000000 0.000000
	CHANNELS 6 Xposition Yposition Zposition Zrotation Yrotation Xrotation 
	JOINT LHipJoint
	{
		OFFSET 0.000000 0.000000 0.000000
		CHANNELS 3 Zrotation Yrotation Xrotation
		JOINT LeftUpLeg
		{
			OFFSET 1.363060 -1.794630 0.839290
			CHANNELS 3 Zrotation Yrotation Xrotation
			JOINT LeftLeg
			{
				OFFSET 2.448110 -6.726130 0.000000
				CHANNELS 3 Zrotation Yrotation Xrotation
				JOINT LeftFoot
				{
					OFFSET 2.562200 -7.039590 0.000000
					CHANNELS 3 Zrotation Yrotation Xrotation
					JOINT LeftToeBase
					{
						OFFSET 0.157640 -0.433110 2.322550
						CHANNELS 3 Zrotation Yrotation Xrotation
						End Site
						{
							OFFSET 0.000000 0.000000 0.000000
						}
					}
				}
			}
		}
	}
	JOINT RHipJoint
	{
		OFFSET 0.000000 0.000000 0.000000
		CHANNELS 3 Zrotation Yrotation Xrotation
		JOINT RightUpLeg
		{
			OFFSET -1.305520 -1.794630 0.839290
			CHANNELS 3 Zrotation Yrotation Xrotation
			JOINT RightLeg
			{
				OFFSET -2.542530 -6.985550 0.000000
				CHANNELS 3 Zrotation Yrotation Xrotation
				JOINT RightFoot
				{
					OFFSET -2.568260 -7.056230 0.000000
					CHANNELS 3 Zrotation Yrotation Xrotation
					JOINT RightToeBase
					{
						OFFSET -0.164730 -0.452590 2.363150
						CHANNELS 3 Zrotation Yrotation Xrotation
						End Site
						{
							OFFSET 0.000000 0.000000 0.000000
						}
					}
				}
			}
		}
	}
	JOINT LowerBack
	{
		OFFSET 0.000000 0.000000 0.000000
		CHANNELS 3 Zrotation Yrotation Xrotation
		JOINT Spine
		{
			OFFSET 0.028270 2.035590 -0.193380
			CHANNELS 3 Zrotation Yrotation Xrotation
			JOINT Spine1
			{
				OFFSET 0.056720 2.048850 -0.042750
				CHANNELS 3 Zrotation Yrotation Xrotation
				JOINT Neck
				{
					OFFSET 0.000000 0.000000 0.000000
					CHANNELS 3 Zrotation Yrotation Xrotation
					JOINT Neck1
					{
						OFFSET -0.054170 1.746240 0.172020
						CHANNELS 3 Zrotation Yrotation Xrotation
						JOINT Head
						{
							OFFSET 0.104070 1.761360 -0.123970
							CHANNELS 3 Zrotation Yrotation Xrotation
							End Site
							{
								OFFSET 0.000000 0.000000 0.000000
							}
						}
					}
				}
				JOINT LeftShoulder
				{
					OFFSET 0.000000 0.000000 0.000000
					CHANNELS 3 Zrotation Yrotation Xrotation
					JOINT LeftArm
					{
						OFFSET 3.362410 1.200890 -0.311210
						CHANNELS 3 Zrotation Yrotation Xrotation
						JOINT LeftForeArm
						{
							OFFSET 4.983000 -0.000000 -0.000000
							CHANNELS 3 Zrotation Yrotation Xrotation
							JOINT LeftHand
							{
								OFFSET 3.483560 -0.000000 -0.000000
								CHANNELS 3 Zrotation Yrotation Xrotation
								JOINT LeftFingerBase
								{
									OFFSET 0.000000 0.000000 0.000000
									CHANNELS 3 Zrotation Yrotation Xrotation
									JOINT LeftHandIndex1
									{
										OFFSET 0.715260 -0.000000 -0.000000
										CHANNELS 3 Zrotation Yrotation Xrotation
										End Site
										{
											OFFSET 0.000000 0.000000 0.000000
										}
									}
								}
								JOINT LThumb
								{
									OFFSET 0.000000 0.000000 0.000000
									CHANNELS 3 Zrotation Yrotation Xrotation
									End Site
									{
										OFFSET 0.000000 0.000000 0.000000
									}
								}
							}
						}
					}
				}
				JOINT RightShoulder
				{
					OFFSET 0.000000 0.000000 0.000000
					CHANNELS 3 Zrotation Yrotation Xrotation
					JOINT RightArm
					{
						OFFSET -3.136600 1.374050 -0.404650
						CHANNELS 3 Zrotation Yrotation Xrotation
						JOINT RightForeArm
						{
							OFFSET -5.241900 -0.000000 -0.000000
							CHANNELS 3 Zrotation Yrotation Xrotation
							JOINT RightHand
							{
								OFFSET -3.444170 -0.000000 -0.000000
								CHANNELS 3 Zrotation Yrotation Xrotation
								JOINT RightFingerBase
								{
									OFFSET 0.000000 0.000000 0.000000
									CHANNELS 3 Zrotation Yrotation Xrotation
									JOINT RightHandIndex1
									{
										OFFSET -0.622530 -0.000000 -0.000000
										CHANNELS 3 Zrotation Yrotation Xrotation
										End Site
										{
											OFFSET 0.000000 0.000000 0.000000
										}
									}
								}
								JOINT RThumb
								{
									OFFSET 0.000000 0.000000 0.000000
									CHANNELS 3 Zrotation Yrotation Xrotation
									End Site
									{
										OFFSET 0.000000 0.000000 0.000000
									}
								}
							}
						}
					}
				}
			}
		}
	}
}
MOTION
Frames: 5
Frame Time: 0.008333
9.174286 18.371851 1.911681 -4.069214 -3.485000 7.513082 0.160127 -1.829798 -2.854154 -11.501683 2.525794 -35.399105 0.403779 12.892232 31.288305 -4.380625 15.137999 7.938257 0.380500 -3.961600 -10.968600 0.715736 -1.012432 1.914893 26.110653 4.601903 -4.268611 2.210409 -5.723833 18.109514 -1.940914 5.243590 3.500292 -0.370200 3.907900 -10.817800 3.473178 3.500010 -2.860055 0.903556 3.860221 -5.323691 3.968568 2.453579 5.108560 -11.035878 -3.267908 -16.631620 3.361219 -1.607747 3.563793 4.881800 -1.047200 7.604000 -0.917789 -6.731850 -0.815815 -83.432938 11.898323 39.492447 12.041763 -21.708075 -3.320017 -0.115718 1.178081 -4.211216 13.665039 -24.527972 -6.044000 -7.125000 0.000000 0.000000 -9.697700 3.909200 9.148400 0.603864 8.589439 1.223761 69.371535 3.113658 40.331649 -14.654748 21.043164 -4.552915 3.224870 1.874762 -9.846830 -27.697272 -22.701237 13.499800 7.125000 0.000000 0.000000 -2.248500 -56.771300 0.649000
9.180355 18.371215 2.018912 -4.134475 -3.775719 7.599624 0.064349 -1.882720 -2.914997 -11.271740 2.475417 -35.340089 -0.001267 12.362717 29.584507 -4.451005 15.446251 8.517318 0.418175 -4.146839 -11.490628 0.751695 -1.047671 1.987547 26.036504 4.609399 -3.784170 2.267152 -5.537446 17.670476 -1.954804 5.338685 3.764691 -0.394909 4.033093 -11.170105 3.576596 3.656865 -2.899305 0.873507 4.048193 -5.333468 3.843681 2.573752 4.975222 -11.013337 -3.253855 -16.266922 3.339888 -1.635312 3.504748 4.879090 -1.056818 7.456861 -0.950407 -6.712406 -0.804392 -83.410548 12.467366 38.888124 11.751712 -21.384597 -3.214257 -0.035892 1.136999 -3.678411 12.283658 -24.017072 -5.293584 -7.125000 0.000000 0.000000 -10.550247 4.644684 9.824369 0.586779 8.599300 1.247684 69.228115 3.338180 40.354970 -14.898702 21.296933 -4.660943 3.207320 1.935523 -9.942109 -27.425773 -23.113069 13.597521 7.125000 0.000000 0.000000 -1.822226 -57.221751 0.541608
9.186787 18.370805 2.126539 -4.210662 -4.062166 7.687887 -0.029340 -1.935744 -2.977774 -11.032085 2.425027 -35.283438 -0.400669 11.832333 27.885132 -4.519112 15.751894 9.101494 0.445839 -4.282516 -11.873031 0.786016 -1.083239 2.059687 25.974670 4.617289 -3.293542 2.323643 -5.350433 17.229440 -1.968816 5.434345 4.008026 -0.420365 4.160885 -11.529873 3.698114 3.813101 -2.945321 0.844387 4.233638 -5.341666 3.715067 2.692578 4.859514 -10.990843 -3.241207 -15.925568 3.317636 -1.662491 3.449355 4.876367 -1.066292 7.317096 -0.980472 -6.690888 -0.792644 -83.394398 13.025380 38.274642 11.468367 -21.068937 -3.113419 0.022266 1.116894 -3.181513 11.269476 -23.759541 -4.773591 -7.125000 0.000000 0.000000 -11.184209 5.056275 10.350094 0.569990 8.607044 1.271343 69.075828 3.574608 40.389690 -15.140195 21.547933 -4.766543 3.189817 1.990516 -10.043857 -27.169722 -23.475775 13.674782 7.125000 0.000000 0.000000 -1.425683 -57.615787 0.440442
9.195920 18.372077 2.237123 -4.368425 -4.316710 7.788992 -0.107426 -1.989529 -3.055001 -10.719909 2.374538 -35.244442 -0.757933 11.295458 26.218786 -4.570241 16.038055 9.723866 0.398759 -4.048124 -11.212897 0.808105 -1.121270 2.127986 26.004790 4.628131 -2.756717 2.378249 -5.158743 16.773489 -1.983741 5.534222 4.094089 -0.451398 4.308077 -11.945360 3.954777 3.964713 -3.041855 0.822194 4.400208 -5.338080 3.558624 2.801352 4.875449 -10.968690 -3.239057 -15.758523 3.288501 -1.686788 3.421225 4.873551 -1.074687 7.232394 -0.991483 -6.653882 -0.778466 -83.424841 13.501042 37.592766 11.235093 -20.811647 -3.049333 -0.081353 1.253414 -2.952725 12.997046 -25.393837 -5.974086 -7.125000 0.000000 0.000000 -10.186063 3.049462 9.753991 0.555413 8.598982 1.293033 68.857328 3.899929 40.509527 -15.363313 21.778264 -4.854025 3.172659 2.002450 -10.193904 -27.029018 -23.471670 13.599272 7.125000 0.000000 0.000000 -1.251124 -57.588580 0.385763
9.204507 18.371628 2.346122 -4.562232 -4.541078 7.883571 -0.182980 -2.042443 -3.133491 -10.352939 2.272163 -35.173084 -1.104499 10.757076 24.564788 -4.609449 16.290398 10.314738 0.343369 -3.752050 -10.381524 0.825303 -1.158290 2.192156 26.086196 4.620248 -2.216292 2.433340 -4.963335 16.305401 -1.993497 5.618747 4.167264 -0.483259 4.456688 -12.365277 4.238165 4.102434 -3.112568 0.806957 4.547173 -5.328942 3.419729 2.897791 4.937021 -10.947987 -3.237174 -15.698302 3.249203 -1.700358 3.399609 4.863028 -1.079154 7.181131 -0.992776 -6.620303 -0.765858 -83.453738 13.893499 36.940385 11.009984 -20.566039 -2.992963 -0.214048 1.414503 -2.780328 15.277435 -27.409355 -7.685987 -7.125000 0.000000 0.000000 -8.948407 0.497880 8.919357 0.546799 8.591128 1.312318 68.612454 4.303460 40.613575 -15.569766 21.988530 -4.942870 3.164736 2.025032 -10.353052 -26.965228 -23.567347 13.621320 7.125000 0.000000 0.000000 -1.149570 -57.693085 0.357908
